<svg width="21" height="21" viewBox="0 0 21 21" fill="none" xmlns="http://www.w3.org/2000/svg">
<path d="M17.4945 3.14243C16.8813 2.94913 16.1922 2.85528 15.396 2.80615C14.486 2.75 13.3801 2.75 12.0233 2.75H8.9608C7.35741 2.74999 6.10045 2.74999 5.09626 2.84547C4.07271 2.94279 3.23461 3.14457 2.49579 3.59732C1.72209 4.07144 1.07159 4.72194 0.597474 5.49563C0.580677 5.52304 0.564225 5.55059 0.548112 5.57828C0.625406 4.13513 0.827292 3.17932 1.3546 2.42267C1.63056 2.0267 1.96457 1.67848 2.34438 1.39079C3.52042 0.5 5.19803 0.5 8.55323 0.5H13.9219C15.6092 0.5 16.4528 0.5 16.9769 1.04645C17.3795 1.46614 17.4729 2.08228 17.4945 3.14243Z" fill="currentColor"/>
<path d="M1.23686 5.88751C0.500061 7.08985 0.500061 8.72657 0.500061 12C0.500061 15.2734 0.500061 16.9101 1.23686 18.1125C1.64914 18.7853 2.21479 19.3509 2.88757 19.7632C4.08992 20.5 5.72663 20.5 9.00006 20.5H12.0001C15.2735 20.5 16.9102 20.5 18.1126 19.7632C18.7853 19.3509 19.351 18.7853 19.7633 18.1125C20.2472 17.3229 20.4133 16.3459 20.4703 14.8409H14.1365C12.2161 14.8409 10.6592 13.2841 10.6592 11.3637C10.6592 9.44321 12.2161 7.88638 14.1365 7.88638H20.3778C20.2775 7.05873 20.0951 6.42906 19.7633 5.88751C19.351 5.21473 18.7853 4.64908 18.1126 4.2368C17.921 4.11943 17.7185 4.02076 17.5001 3.93781C16.3472 3.5 14.7521 3.5 12.0001 3.5H9.00006C5.72663 3.5 4.08992 3.5 2.88757 4.2368C2.21479 4.64908 1.64914 5.21473 1.23686 5.88751Z" fill="currentColor"/>
<path fill-rule="evenodd" clip-rule="evenodd" d="M20.478 9.38638H14.1365C13.0445 9.38638 12.1592 10.2716 12.1592 11.3637C12.1592 12.4557 13.0445 13.3409 14.1365 13.3409H20.4977C20.5001 12.9268 20.5001 12.4811 20.5001 12C20.5001 10.9828 20.5001 10.1236 20.478 9.38638ZM14.1365 10.6137C13.7223 10.6137 13.3865 10.9494 13.3865 11.3637C13.3865 11.7779 13.7223 12.1137 14.1365 12.1137H16.8638C17.278 12.1137 17.6138 11.7779 17.6138 11.3637C17.6138 10.9494 17.278 10.6137 16.8638 10.6137H14.1365Z" fill="currentColor"/>
</svg>
