<svg width="21" height="21" viewBox="0 0 21 21" fill="none" xmlns="http://www.w3.org/2000/svg">
<path d="M4.88225 19.6005L4.57016 20.2825L4.88225 19.6005ZM2.31157 16.7604L1.60931 17.0237L2.31157 16.7604ZM18.6884 16.7604L19.3907 17.0237L18.6884 16.7604ZM16.1177 19.6005L16.4298 20.2825L16.1177 19.6005ZM1.95 9.48034L2.69735 9.5433L2.73093 9.1447L2.41862 8.89476L1.95 9.48034ZM17.625 4.97189V4.22189H17.625L17.625 4.97189ZM11.2294 3.8589L11.7736 4.37495L11.2294 3.8589ZM13.2446 1.73361L13.7889 2.24966L13.2446 1.73361ZM16.6034 1.73361L16.0592 2.24966V2.24966L16.6034 1.73361ZM16.8493 4.97188L16.8494 5.72188L17.244 5.72185L17.4675 5.39654L16.8493 4.97188ZM9.91965 3.85891L9.37541 4.37497L9.91965 3.85891ZM7.90439 1.73362L7.36016 2.24967V2.24967L7.90439 1.73362ZM4.54563 1.73362L5.08987 2.24967V2.24967L4.54563 1.73362ZM10.5 18.9981H11.25H10.5ZM1.91915 9.45565L1.44382 10.0358H1.44382L1.91915 9.45565ZM18.9886 9.52753L18.5422 8.92489L18.9886 9.52753ZM9.075 19.25C7.95706 19.25 7.16009 19.2495 6.53239 19.2022C5.91305 19.1555 5.51713 19.0663 5.19435 18.9185L4.57016 20.2825C5.12029 20.5343 5.71413 20.6448 6.41963 20.6979C7.11677 20.7505 7.97972 20.75 9.075 20.75V19.25ZM1.20003 12.1281C1.20003 13.3415 1.19969 14.2855 1.24664 15.0458C1.29392 15.8116 1.39124 16.442 1.60931 17.0237L3.01384 16.4971C2.87033 16.1143 2.78688 15.6513 2.74379 14.9533C2.70036 14.25 2.70003 13.3601 2.70003 12.1281H1.20003ZM5.19435 18.9185C4.22478 18.4748 3.43194 17.6123 3.01384 16.4971L1.60931 17.0237C2.15539 18.4802 3.21196 19.6609 4.57016 20.2825L5.19435 18.9185ZM18.3 12.1281C18.3 13.36 18.2997 14.25 18.2562 14.9533C18.2131 15.6513 18.1297 16.1143 17.9862 16.4971L19.3907 17.0237C19.6088 16.442 19.7061 15.8116 19.7534 15.0458C19.8003 14.2854 19.8 13.3414 19.8 12.1281H18.3ZM11.925 20.75C13.0203 20.75 13.8832 20.7505 14.5804 20.6979C15.2859 20.6448 15.8797 20.5343 16.4298 20.2825L15.8057 18.9185C15.4829 19.0663 15.0869 19.1555 14.4676 19.2022C13.8399 19.2495 13.0429 19.25 11.925 19.25V20.75ZM17.9862 16.4971C17.5681 17.6123 16.7752 18.4748 15.8057 18.9185L16.4298 20.2825C17.788 19.6609 18.8446 18.4802 19.3907 17.0237L17.9862 16.4971ZM2.70003 12.1281C2.70003 10.6572 2.63515 10.2816 2.69735 9.5433L1.20265 9.41737C1.13425 10.2292 1.20003 10.8348 1.20003 12.1281H2.70003ZM17.625 5.72189C18.4854 5.72189 19.25 6.46942 19.25 7.47657H20.75C20.75 5.71713 19.388 4.22189 17.625 4.22189V5.72189ZM3.375 4.22189C1.61204 4.22189 0.25 5.71713 0.25 7.47657H1.75C1.75 6.46942 2.51461 5.72189 3.375 5.72189V4.22189ZM11.7736 4.37495L13.7889 2.24966L12.7004 1.21755L10.6851 3.34285L11.7736 4.37495ZM13.7889 2.24966C14.4206 1.58345 15.4274 1.58345 16.0592 2.24966L17.1476 1.21755C15.9243 -0.0725173 13.9237 -0.0725173 12.7004 1.21755L13.7889 2.24966ZM10.6851 3.34285C10.3847 3.65973 9.93193 4.1697 9.77364 4.78507L11.2264 5.15874C11.2778 4.95876 11.467 4.69828 11.7736 4.37495L10.6851 3.34285ZM16.0592 2.24966C16.6456 2.86813 16.7089 3.85173 16.2311 4.54721L17.4675 5.39654C18.3351 4.13362 18.2344 2.36368 17.1476 1.21755L16.0592 2.24966ZM10.4639 3.34286L8.44862 1.21757L7.36016 2.24967L9.37541 4.37497L10.4639 3.34286ZM8.44862 1.21757C7.22535 -0.0725038 5.22467 -0.0725038 4.0014 1.21757L5.08987 2.24967C5.72158 1.58346 6.72844 1.58346 7.36016 2.24967L8.44862 1.21757ZM9.37541 4.37497C9.56506 4.57497 9.68946 4.83147 9.77364 5.15874L11.2264 4.78507C11.1008 4.29698 10.8813 3.78307 10.4639 3.34286L9.37541 4.37497ZM4.0014 1.21757C2.91462 2.36369 2.81395 4.13363 3.68152 5.39656L4.9179 4.54722C4.44014 3.85175 4.50342 2.86814 5.08987 2.24967L4.0014 1.21757ZM9.75 4.97191L9.75 18.9981H11.25L11.25 4.97191H9.75ZM4.29971 5.72189L10.5 5.72191L10.5 4.22191L4.29971 4.22189L4.29971 5.72189ZM3.375 9.23126C3.00962 9.23126 2.67038 9.10157 2.39448 8.87551L1.44382 10.0358C1.97209 10.4686 2.64317 10.7313 3.375 10.7313V9.23126ZM2.39448 8.87551C2.00829 8.55909 1.75 8.05555 1.75 7.47657H0.25C0.25 8.50708 0.711447 9.43573 1.44382 10.0358L2.39448 8.87551ZM2.41862 8.89476L2.38776 8.87007L1.45053 10.0412L1.48138 10.0659L2.41862 8.89476ZM11.925 19.25H10.5V20.75H11.925V19.25ZM10.5 19.25H9.075V20.75H10.5V19.25ZM9.75 18.9981L9.75 20L11.25 20L11.25 18.9981H9.75ZM17.625 9.23126H10.5V10.7313H17.625V9.23126ZM10.5 9.23126H3.375V10.7313H10.5V9.23126ZM19.25 7.47657C19.25 8.08695 18.963 8.61314 18.5422 8.92489L19.4351 10.1302C20.2375 9.53569 20.75 8.5625 20.75 7.47657H19.25ZM18.5422 8.92489C18.2786 9.12015 17.9634 9.23126 17.625 9.23126V10.7313C18.3015 10.7313 18.9268 10.5067 19.4351 10.1302L18.5422 8.92489ZM19.8 12.1281C19.8 10.7804 19.8004 10.2505 19.7361 9.46622L18.2411 9.58884C18.2996 10.3011 18.3 10.7681 18.3 12.1281H19.8ZM10.5 5.72191L16.6034 5.72189L16.6034 4.22189L10.5 4.22191L10.5 5.72191ZM16.6034 5.72189L16.8494 5.72188L16.8493 4.22188L16.6033 4.22189L16.6034 5.72189ZM16.6034 5.72189L17.625 5.72189L17.625 4.22189L16.6034 4.22189L16.6034 5.72189ZM4.29971 4.22189H3.375V5.72189H4.29971V4.22189ZM3.375 5.72189L6.9375 5.7219L6.9375 4.2219L3.375 4.22189L3.375 5.72189ZM6.9375 5.7219L10.5 5.72191L10.5 4.22191L6.9375 4.2219L6.9375 5.7219ZM4.29971 5.72189L6.9375 5.7219L6.9375 4.2219L4.29971 4.22189L4.29971 5.72189ZM10.5 5.72191L16.8493 5.72188L16.8493 4.22188L10.5 4.22191L10.5 5.72191Z" fill="currentColor"/>
</svg>
