<svg width="21" height="21" viewBox="0 0 21 21" fill="none" xmlns="http://www.w3.org/2000/svg">
<path fill-rule="evenodd" clip-rule="evenodd" d="M5.06008 3.3893C2.51778 5.27703 1.24662 6.2209 0.747368 7.61512C0.707318 7.72696 0.671295 7.84027 0.639372 7.95481C0.241416 9.38267 0.726953 10.9099 1.69803 13.9643C2.6691 17.0187 3.15464 18.5459 4.2978 19.462C4.3895 19.5355 4.48381 19.6055 4.58054 19.672C5.78631 20.5 7.35754 20.5 10.5 20.5C13.6425 20.5 15.2137 20.5 16.4195 19.672C16.5162 19.6055 16.6105 19.5355 16.7022 19.462C17.8454 18.5459 18.3309 17.0187 19.302 13.9643C20.273 10.9099 20.7586 9.38267 20.3606 7.95481C20.3287 7.84027 20.2927 7.72696 20.2526 7.61512C19.7534 6.2209 18.4822 5.27704 15.9399 3.38931C13.3976 1.50158 12.1265 0.557702 10.6747 0.503275C10.5583 0.498908 10.4417 0.498908 10.3253 0.503275C8.87354 0.557702 7.60238 1.50157 5.06008 3.3893ZM8.59337 15.1821C8.1985 15.1821 7.87839 15.5093 7.87839 15.9129C7.87839 16.3164 8.1985 16.6436 8.59337 16.6436H12.4066C12.8015 16.6436 13.1216 16.3164 13.1216 15.9129C13.1216 15.5093 12.8015 15.1821 12.4066 15.1821H8.59337Z" fill="currentColor"/>
</svg>
