<svg width="21" height="21" viewBox="0 0 16 16" fill="none" xmlns="http://www.w3.org/2000/svg">
<path d="M9.73952 6.55078H3.65257C3.41246 6.55078 3.21777 6.74544 3.21777 6.98557V10.7537C3.21777 10.9938 3.41243 11.1885 3.65257 11.1885H9.73952C9.97962 11.1885 10.1743 10.9938 10.1743 10.7537V6.98555C10.1743 6.74544 9.97962 6.55078 9.73952 6.55078ZM5.24676 10.3189H4.08733V7.42034H5.24676V10.3189ZM7.27574 10.3189H6.11632V7.42034H7.27574V10.3189ZM9.30473 10.3189H8.1453V7.42034H9.30473V10.3189Z" fill="currentColor"/>
<path d="M13.362 1.33301C12.6428 1.33301 12.0576 1.91814 12.0576 2.63736C12.0576 3.20418 12.4212 3.68744 12.9272 3.86691V7.41996H12.0576V6.69533C12.0576 3.73855 9.65215 1.33301 6.69533 1.33301C3.73855 1.33301 1.33301 3.73855 1.33301 6.69533V13.362C1.33301 14.0812 1.91814 14.6663 2.63736 14.6663H10.7533C11.4725 14.6663 12.0576 14.0812 12.0576 13.362V8.28952H13.362C13.6021 8.28952 13.7968 8.09486 13.7968 7.85473V3.86691C14.3028 3.68744 14.6663 3.20418 14.6663 2.63736C14.6663 1.91814 14.0812 1.33301 13.362 1.33301ZM11.1881 13.362C11.1881 13.6017 10.993 13.7968 10.7533 13.7968H2.63736C2.39762 13.7968 2.20257 13.6017 2.20257 13.362V6.69533C2.20257 4.21803 4.21801 2.20257 6.69533 2.20257C9.17264 2.20257 11.1881 4.21801 11.1881 6.69533V13.362ZM13.362 3.07215C13.1223 3.07215 12.9272 2.8771 12.9272 2.63736C12.9272 2.39762 13.1223 2.20257 13.362 2.20257C13.6017 2.20257 13.7968 2.39762 13.7968 2.63736C13.7968 2.8771 13.6017 3.07215 13.362 3.07215Z" fill="currentColor"/>
<path d="M9.56492 5.10091C9.13469 3.88753 7.98154 3.07227 6.69539 3.07227C5.40922 3.07227 4.25607 3.8875 3.82589 5.10091C3.74565 5.32724 3.86409 5.57576 4.09042 5.65599C4.3168 5.73628 4.56526 5.61781 4.6455 5.39151C4.95289 4.5244 5.7767 3.94185 6.69542 3.94185C7.61412 3.94185 8.43792 4.52443 8.74537 5.39151C8.8086 5.56979 8.9762 5.68115 9.15516 5.68109C9.20336 5.68109 9.2524 5.67299 9.30047 5.65599C9.52675 5.57573 9.64518 5.32724 9.56492 5.10091Z" fill="currentColor"/>
<path d="M6.69553 5.68111C6.93566 5.68111 7.13033 5.48644 7.13033 5.24632C7.13033 5.00619 6.93566 4.81152 6.69553 4.81152C6.4554 4.81152 6.26074 5.00619 6.26074 5.24632C6.26074 5.48644 6.4554 5.68111 6.69553 5.68111Z" fill="currentColor"/>
<path d="M8.86952 12.0581H4.52171C4.2816 12.0581 4.08691 12.2528 4.08691 12.4929C4.08691 12.733 4.28158 12.9277 4.52171 12.9277H8.86952C9.10962 12.9277 9.30431 12.733 9.30431 12.4929C9.30431 12.2528 9.10965 12.0581 8.86952 12.0581Z" fill="currentColor"/>
</svg>
