<?xml version="1.0" encoding="UTF-8"?>
<svg version="1.0" xmlns="http://www.w3.org/2000/svg"
 width="24" height="24" viewBox="0 0 219 219"
 preserveAspectRatio="xMidYMid meet">
<g transform="translate(0.000000,219.000000) scale(0.100000,-0.100000)"
fill="currentColor" stroke="none">
<path d="M972 2098 c-16 -16 -15 -60 3 -84 8 -10 15 -29 15 -40 0 -12 7 -27
15 -34 8 -7 15 -20 15 -29 0 -10 7 -26 15 -37 8 -10 15 -28 15 -39 0 -24 45
-75 65 -75 19 0 65 51 65 72 0 9 6 29 14 45 7 15 21 46 31 68 9 22 24 52 31
67 17 32 18 70 2 86 -8 8 -54 12 -143 12 -89 0 -135 -4 -143 -12z"/>
<path d="M838 1873 c-32 -5 -33 -10 -13 -37 8 -11 15 -30 15 -43 0 -13 4 -23
10 -23 5 0 14 -18 20 -40 6 -21 15 -42 20 -45 6 -3 10 -17 10 -29 0 -13 7 -29
15 -36 8 -7 15 -21 15 -30 0 -10 7 -32 15 -49 8 -17 22 -45 30 -62 8 -17 15
-39 15 -49 0 -9 6 -23 14 -29 8 -6 16 -22 19 -34 3 -12 12 -40 20 -62 l15 -40
59 0 c54 0 58 2 61 24 2 14 10 34 17 45 7 12 15 33 19 49 4 15 11 27 16 27 6
0 10 9 10 19 0 11 7 33 15 50 8 17 22 45 30 62 8 17 15 39 15 49 0 9 7 23 15
30 8 7 15 21 15 32 0 11 6 32 13 46 8 15 22 45 31 67 10 22 24 53 32 69 17 33
18 31 -22 39 -32 6 -37 0 -81 -103 -54 -125 -81 -145 -194 -144 -107 1 -131
21 -187 154 -8 19 -19 42 -24 50 -5 8 -11 23 -14 33 -4 9 -9 16 -13 16 -3 -1
-18 -4 -33 -6z"/>
<path d="M654 1796 c-3 -9 -13 -16 -21 -16 -16 0 -165 -110 -202 -150 -34 -37
-131 -168 -131 -179 0 -5 -7 -14 -15 -21 -8 -7 -15 -20 -15 -29 0 -18 52 -51
80 -51 9 0 23 -7 30 -15 7 -8 23 -15 35 -15 12 0 28 -7 35 -15 7 -8 21 -15 32
-15 11 0 32 -6 46 -13 15 -8 45 -22 67 -31 22 -10 53 -24 68 -32 16 -8 37 -14
47 -14 9 0 23 -7 30 -15 7 -8 23 -15 35 -15 12 0 28 -7 35 -15 21 -25 57 -17
95 21 33 33 34 36 20 57 -8 12 -15 29 -15 38 0 9 -7 22 -15 29 -8 7 -15 21
-15 30 0 18 -6 31 -44 108 -9 19 -16 42 -16 52 0 9 -7 23 -15 30 -8 7 -15 21
-15 30 0 10 -6 31 -14 47 -8 15 -22 46 -32 68 -9 22 -22 49 -27 60 -6 11 -13
33 -17 50 -6 33 -36 46 -46 21z"/>
<path d="M1537 1803 c-4 -3 -7 -16 -7 -27 0 -12 -6 -30 -14 -41 -7 -11 -16
-32 -20 -47 -3 -16 -11 -28 -16 -28 -6 0 -10 -10 -10 -23 0 -13 -7 -32 -15
-43 -8 -10 -15 -29 -15 -40 0 -12 -7 -27 -15 -34 -8 -7 -15 -21 -15 -30 0 -10
-7 -33 -16 -52 -38 -77 -44 -90 -44 -108 0 -9 -7 -23 -15 -30 -8 -7 -15 -22
-15 -33 0 -11 -7 -28 -16 -38 -14 -16 -12 -20 21 -53 38 -38 74 -46 95 -21 7
8 23 15 35 15 12 0 28 7 35 15 7 8 21 15 30 15 10 0 31 6 47 14 15 8 46 22 68
32 22 9 52 23 67 31 14 7 35 13 46 13 11 0 25 7 32 15 7 8 21 15 30 15 10 0
31 6 47 14 15 7 45 22 66 31 39 19 48 44 22 65 -8 7 -15 21 -15 31 0 11 -4 19
-9 19 -4 0 -26 26 -49 58 -22 31 -53 71 -69 87 -34 36 -188 155 -201 155 -5 0
-15 7 -22 15 -13 16 -32 19 -43 8z"/>
<path d="M196 1225 c-9 -13 -16 -41 -16 -62 -1 -21 -7 -56 -15 -78 -20 -54
-19 -210 0 -265 8 -23 15 -59 15 -79 0 -64 48 -104 80 -66 7 8 21 15 30 15 10
0 31 6 47 14 15 8 46 22 68 32 22 9 52 23 67 31 14 7 35 13 46 13 11 0 25 7
32 15 7 8 21 15 30 15 10 0 33 8 52 17 18 9 45 22 60 30 14 7 35 13 46 13 12
0 24 5 27 11 4 6 16 14 28 18 17 6 21 17 22 53 0 40 -3 47 -28 62 -16 9 -37
16 -47 16 -9 0 -23 7 -30 15 -7 8 -23 15 -35 15 -12 0 -28 7 -35 15 -7 8 -21
15 -32 15 -11 0 -32 6 -46 13 -15 8 -45 22 -67 31 -22 10 -53 24 -68 32 -16 8
-37 14 -47 14 -9 0 -23 7 -30 15 -7 8 -22 15 -33 15 -11 0 -28 6 -36 14 -9 7
-28 16 -42 20 -21 5 -30 1 -43 -19z"/>
<path d="M1965 1230 c-22 -11 -47 -20 -56 -20 -9 0 -22 -7 -29 -15 -7 -8 -21
-15 -30 -15 -10 0 -31 -6 -47 -14 -15 -8 -46 -22 -68 -32 -22 -9 -52 -23 -67
-31 -14 -7 -35 -13 -46 -13 -11 0 -25 -7 -32 -15 -7 -8 -23 -15 -35 -15 -12 0
-28 -7 -35 -15 -7 -8 -21 -15 -30 -15 -10 0 -31 -7 -47 -17 -26 -14 -29 -22
-29 -65 0 -39 3 -48 17 -48 10 0 24 -7 33 -15 8 -8 23 -15 33 -15 11 0 28 -7
39 -15 10 -8 29 -15 40 -15 12 0 27 -7 34 -15 7 -8 23 -15 35 -15 12 0 28 -7
35 -15 7 -8 21 -15 32 -15 11 0 32 -6 46 -13 15 -8 45 -22 67 -31 22 -10 53
-24 68 -32 16 -8 37 -14 47 -14 9 0 23 -7 30 -15 31 -38 80 1 80 65 0 19 7 57
15 84 20 64 19 211 0 266 -8 23 -15 58 -15 77 0 32 -24 83 -39 83 -4 0 -24 -9
-46 -20z"/>
<path d="M1010 1072 l-53 -48 0 -70 c0 -66 2 -72 33 -104 38 -39 94 -70 126
-70 30 0 80 28 122 69 33 33 35 38 35 105 l0 70 -53 48 c-49 44 -58 48 -105
48 -47 0 -56 -4 -105 -48z m159 -81 c21 -29 21 -31 4 -66 -28 -59 -89 -60
-117 -1 -14 30 -14 36 0 65 13 27 21 31 54 31 31 0 43 -6 59 -29z"/>
<path d="M845 763 c-19 -4 -60 -21 -118 -49 -16 -8 -37 -14 -47 -14 -9 0 -23
-7 -30 -15 -7 -8 -22 -15 -34 -15 -11 0 -30 -7 -40 -15 -11 -8 -30 -15 -43
-15 -13 0 -23 -4 -23 -10 0 -5 -18 -14 -40 -20 -21 -6 -42 -15 -45 -20 -3 -6
-17 -10 -29 -10 -13 0 -29 -7 -36 -15 -7 -8 -22 -15 -35 -15 -12 0 -29 -8 -38
-18 -19 -20 -23 -52 -7 -52 5 0 16 -15 24 -34 7 -18 22 -42 33 -52 10 -10 34
-39 53 -63 35 -45 173 -169 200 -179 8 -3 30 -16 47 -30 38 -28 63 -23 63 11
0 14 7 30 15 37 8 7 15 21 15 30 0 10 7 33 16 52 38 77 44 90 44 108 0 9 7 23
15 30 8 7 15 22 15 34 0 11 7 30 15 40 8 11 15 27 15 37 0 9 7 22 15 29 8 7
15 22 15 34 0 12 7 31 15 42 8 10 15 28 15 38 0 11 7 27 15 36 13 15 11 20
-23 51 -23 23 -44 34 -57 32z"/>
<path d="M1325 730 c-32 -32 -34 -38 -20 -50 8 -7 15 -22 15 -34 0 -11 7 -30
15 -40 8 -11 15 -30 15 -42 0 -12 7 -27 15 -34 8 -7 15 -20 15 -29 0 -10 7
-26 15 -37 8 -10 15 -29 15 -40 0 -12 7 -27 15 -34 8 -7 15 -21 15 -30 0 -10
7 -32 15 -49 8 -17 22 -45 30 -62 8 -17 15 -39 15 -49 0 -9 7 -23 15 -30 8 -7
15 -23 15 -37 0 -34 25 -39 63 -11 17 14 39 27 47 30 26 10 165 134 201 179
19 24 46 57 62 73 15 17 27 39 27 49 0 9 7 20 15 23 35 14 1 74 -42 74 -11 0
-26 7 -33 15 -7 8 -22 15 -34 15 -11 0 -30 7 -40 15 -11 8 -27 15 -37 15 -9 0
-22 7 -29 15 -7 8 -22 15 -34 15 -12 0 -31 7 -42 15 -10 8 -29 15 -40 15 -12
0 -27 7 -34 15 -7 8 -23 15 -35 15 -12 0 -28 7 -35 15 -7 8 -22 15 -34 15 -12
0 -30 6 -41 14 -43 29 -72 25 -110 -14z"/>
<path d="M1050 616 c0 -13 -7 -29 -15 -36 -8 -7 -15 -21 -15 -32 0 -11 -6 -32
-13 -46 -8 -15 -21 -42 -30 -60 -9 -19 -17 -42 -17 -52 0 -9 -7 -23 -15 -30
-8 -7 -15 -23 -15 -35 0 -12 -7 -28 -15 -35 -8 -7 -15 -21 -15 -30 0 -10 -7
-32 -15 -49 -8 -17 -22 -45 -30 -62 -8 -17 -15 -38 -15 -47 0 -8 -7 -23 -16
-33 -22 -25 -10 -39 34 -39 20 0 50 -7 66 -15 41 -22 341 -22 382 0 16 8 46
15 66 15 44 0 56 14 34 39 -9 10 -16 25 -16 33 0 9 -7 30 -15 47 -8 17 -22 45
-30 62 -8 17 -15 38 -15 48 0 9 -5 22 -12 29 -12 12 -35 69 -45 109 -3 12 -11
28 -19 34 -8 6 -14 21 -14 33 0 11 -7 30 -15 40 -8 11 -15 30 -15 42 0 12 -7
27 -15 34 -8 7 -15 23 -15 36 0 23 -3 24 -65 24 -62 0 -65 -1 -65 -24z"/>
</g>
</svg>
