<svg
    width="16"
    height="16"
    viewBox="0 0 16 16"
    fill="none"
    xmlns="http://www.w3.org/2000/svg"
  >
    <path
      d="M15.3738 7.46437C15.6773 7.16403 15.7844 6.72324 15.6535 6.31349C15.5223 5.90374 15.1806 5.61124 14.7608 5.54917L11.028 4.99834C10.869 4.97482 10.7316 4.87356 10.6606 4.72715L8.99178 1.29238C8.8044 0.906458 8.42408 0.666626 8.00024 0.666626C7.5767 0.666626 7.19638 0.906458 7.009 1.29238L5.33986 4.72747C5.26886 4.87387 5.13118 4.97514 4.9722 4.99865L1.23939 5.54948C0.81987 5.61124 0.47783 5.90405 0.346633 6.31381C0.215744 6.72356 0.322863 7.16435 0.626315 7.46469L3.32713 10.1383C3.44228 10.2524 3.49507 10.4167 3.4679 10.5772L2.83074 14.3524C2.77425 14.6847 2.86007 15.0079 3.07184 15.2628C3.40091 15.66 3.9754 15.7811 4.43475 15.5359L7.77303 13.7533C7.91256 13.679 8.08821 13.6796 8.22744 13.7533L11.566 15.5359C11.7284 15.6227 11.9016 15.6666 12.0803 15.6666C12.4066 15.6666 12.7159 15.5193 12.9286 15.2628C13.1407 15.0079 13.2262 14.6841 13.1697 14.3524L12.5323 10.5772C12.5051 10.4163 12.5579 10.2524 12.673 10.1383L15.3738 7.46437Z"
      fill="currentColor"
      fill-opacity="0.6"
    />
  </svg>