<svg width="16" height="16" viewBox="0 0 16 16" fill="none" xmlns="http://www.w3.org/2000/svg">
<path d="M8.1446 0.142313C8.10519 0.104577 8.05174 0.0833765 7.99601 0.083374H7.99552C7.96784 0.0834324 7.94045 0.0887254 7.91492 0.0989492C7.88938 0.109173 7.86621 0.124126 7.84672 0.14295L1.81257 5.9733C1.02282 6.73007 0.556462 7.74188 0.504801 8.81065C0.45314 9.87942 0.819896 10.9282 1.53326 11.7516C2.24663 12.575 3.25523 13.1137 4.3616 13.2623C5.46796 13.411 6.59242 13.1587 7.5148 12.5551L6.14995 15.6368C6.13374 15.6734 6.1292 15.7138 6.13692 15.7528C6.14463 15.7919 6.16424 15.8279 6.19328 15.8563C6.22232 15.8847 6.25949 15.9042 6.3001 15.9124C6.34071 15.9206 6.38295 15.9171 6.42148 15.9023C7.43481 15.5122 8.56635 15.5122 9.57968 15.9023C9.61822 15.9171 9.66045 15.9206 9.70105 15.9124C9.74165 15.9042 9.77881 15.8846 9.80785 15.8563C9.83688 15.8279 9.85649 15.7919 9.86421 15.7528C9.87192 15.7138 9.86739 15.6734 9.85118 15.6368L8.45887 12.493C9.32242 13.0678 10.3694 13.3336 11.4168 13.244C12.4643 13.1544 13.4455 12.7152 14.1891 12.003C15.937 10.3291 15.937 7.60494 14.1891 5.93037L8.1446 0.142313Z" fill="currentColor"/>
</svg>
