<svg width="18" height="16" viewBox="0 0 18 16" fill="none" xmlns="http://www.w3.org/2000/svg">
<path d="M0.837048 6.41841L7.92571 0.860251C8.53135 0.379916 9.48009 0.379916 10.0857 0.860251L17.1207 6.42139C17.3623 6.61233 17.4011 6.96139 17.2132 7.20007C17.0252 7.43874 16.6732 7.48051 16.4345 7.29256L16.2078 7.11355V13.8352C16.2078 14.787 15.2202 15.5 14.3371 15.5H3.23872C2.36755 15.5 1.77982 14.8317 1.77982 13.8352V7.09565L1.52921 7.29256C1.42777 7.37311 1.30843 7.41189 1.18611 7.41189C1.02202 7.41189 0.857933 7.34029 0.747545 7.20007C0.553621 6.95841 0.598372 6.60935 0.837048 6.41841ZM7.32604 13.2296V14.3872H8.43588H9.54572H10.6556V13.2296V11.2814C10.6556 10.637 10.1335 9.94185 8.9908 9.94185C7.84516 9.94185 7.32604 10.637 7.32604 11.2814V13.2296Z" fill="currentColor"/>
</svg>
