<svg width="16" height="16" viewBox="0 0 16 16" fill="none" xmlns="http://www.w3.org/2000/svg">
<path fill-rule="evenodd" clip-rule="evenodd" d="M12.8526 15.2727H10.7363C9.39936 15.2727 8.31619 14.1885 8.31619 12.8526V8.31622H12.8526C14.1884 8.31622 15.2727 9.40049 15.2727 10.7364V12.8526C15.2727 14.1885 14.1884 15.2727 12.8526 15.2727ZM3.14671 15.2727H5.2644C6.60048 15.2727 7.68382 14.1885 7.68382 12.8526V8.31622H3.14671C1.81063 8.31622 0.727295 9.40049 0.727295 10.7364V12.8526C0.727295 14.1885 1.81063 15.2727 3.14671 15.2727ZM12.8526 0.727321H10.7363C9.39936 0.727321 8.31619 1.81066 8.31619 3.14674V7.68384H12.8526C14.1884 7.68384 15.2727 6.6005 15.2727 5.26442V3.14674C15.2727 1.81066 14.1884 0.727321 12.8526 0.727321ZM12.6723 1.99214C13.4102 1.99307 14.0071 2.5899 14.008 3.32786V5.08238C14.008 5.82035 13.4102 6.4181 12.6723 6.41902H9.58112V3.32786C9.58204 2.5899 10.1807 1.99214 10.9187 1.99214H12.6723ZM3.14676 0.727295H5.26445C6.60053 0.727295 7.68387 1.81063 7.68387 3.14671V7.68382H3.14676C1.81068 7.68382 0.727346 6.60048 0.727346 5.2644V3.14671C0.727346 1.81063 1.81068 0.727295 3.14676 0.727295Z" fill="currentColor" fill-opacity="0.6"/>
</svg>
