<svg width="18" height="14" viewBox="0 0 18 14" fill="none" xmlns="http://www.w3.org/2000/svg">
<path d="M5.91675 1.41671C5.91675 0.625041 5.66675 0.375041 5.04175 0.333374H1.54175C0.958415 0.333374 0.666748 0.666707 0.666748 1.33337V12.8334C0.666748 13.2084 0.708415 13.5417 1.04175 13.6667H5.54175C5.91675 13.5 5.91675 13.125 5.91675 12.7084V1.41671ZM2.00008 1.45837H4.95842C4.62508 2.16671 4.16675 2.45837 3.58341 2.54171C2.79175 2.66671 2.16675 2.37504 1.66675 1.50004C1.83341 1.50004 1.91675 1.45837 2.00008 1.45837ZM1.70841 12.625C2.20841 11.2917 4.33341 11.2084 4.91675 12.625H1.70841ZM4.87508 6.08337C4.37508 7.00004 4.08342 7.95837 4.04175 9.00004C4.04175 9.45837 3.70842 9.29171 3.50008 9.29171C2.50008 9.33337 2.45841 9.25004 2.70841 8.12504C2.91675 7.29171 3.33341 6.62504 3.83342 6.00004C3.37508 6.12504 2.79175 5.50004 2.45841 6.45837C2.37508 6.66671 1.95841 6.54171 1.75008 6.50004C1.50008 6.45837 1.58341 6.16671 1.58341 6.00004C1.54175 4.83337 1.54175 4.83337 2.54175 4.83337H4.20842C4.95842 4.83337 5.25008 5.37504 4.87508 6.08337ZM11.6251 1.41671C11.6251 0.625041 11.3751 0.375041 10.7501 0.333374H7.20842C6.62508 0.333374 6.33342 0.666707 6.33342 1.33337V12.7917C6.33342 13.1667 6.37508 13.5 6.70842 13.625H11.2084C11.5834 13.4584 11.5834 13.0834 11.5834 12.6667C11.6251 8.95837 11.6251 5.16671 11.6251 1.41671ZM7.66675 1.45837H10.6667C10.3334 2.16671 9.87508 2.45837 9.29175 2.54171C8.50008 2.66671 7.87508 2.37504 7.37508 1.50004C7.54175 1.50004 7.62508 1.45837 7.66675 1.45837ZM7.41675 12.625C7.91675 11.2917 10.0417 11.2084 10.6251 12.625H7.41675ZM10.5834 6.08337C10.0834 7.00004 9.79175 7.95837 9.75008 9.00004C9.75008 9.45837 9.41675 9.29171 9.20842 9.29171C8.20842 9.33337 8.16675 9.25004 8.41675 8.12504C8.62508 7.29171 9.04175 6.62504 9.54175 6.00004C9.08342 6.12504 8.50008 5.50004 8.16675 6.45837C8.08342 6.66671 7.66675 6.54171 7.45842 6.50004C7.20842 6.41671 7.33342 6.16671 7.33342 5.95837C7.29175 4.79171 7.29175 4.79171 8.29175 4.79171H9.95842C10.6667 4.83337 10.9584 5.37504 10.5834 6.08337ZM17.3334 1.41671C17.3334 0.625041 17.0834 0.333374 16.4584 0.333374H12.9167C12.3334 0.333374 12.0417 0.666707 12.0417 1.33337V12.7917C12.0417 13.1667 12.0834 13.5 12.4167 13.625H16.9167C17.2917 13.4584 17.2917 13.0834 17.2917 12.6667C17.3334 8.95837 17.3334 5.16671 17.3334 1.41671ZM13.3751 1.45837H16.3334C16.0001 2.16671 15.5417 2.45837 14.9584 2.54171C14.1667 2.66671 13.5417 2.37504 13.0417 1.50004C13.2084 1.50004 13.2917 1.45837 13.3751 1.45837ZM13.1251 12.625C13.6251 11.2917 15.7501 11.2084 16.3334 12.625H13.1251ZM16.2501 6.08337C15.7501 7.00004 15.4584 7.95837 15.4167 9.00004C15.4167 9.45837 15.0834 9.29171 14.8751 9.29171C13.8751 9.33337 13.8334 9.25004 14.0834 8.12504C14.2917 7.29171 14.7084 6.62504 15.2084 6.00004C14.7501 6.12504 14.1667 5.50004 13.8334 6.45837C13.7501 6.66671 13.3334 6.54171 13.1251 6.50004C12.8751 6.45837 13.0001 6.16671 12.9584 6.00004C12.9167 4.83337 12.9167 4.83337 13.9167 4.83337H15.5834C16.3751 4.83337 16.6667 5.37504 16.2501 6.08337Z" fill="currentColor" fill-opacity="0.6"/>
</svg>
