<svg width="16" height="16" viewBox="0 0 16 16" fill="none" xmlns="http://www.w3.org/2000/svg">
<path opacity="0.9" fill-rule="evenodd" clip-rule="evenodd" d="M2.99857 3.31309C3.67473 2.4984 4.53198 1.85061 5.50742 1.4375L5.34953 1.73996C5.24249 1.92346 5.292 2.16321 5.46282 2.27571L7.62958 3.56483C7.8401 3.67871 8.18265 3.67687 8.39138 3.56483L10.5546 2.27709C10.7258 2.16321 10.7736 1.92346 10.6665 1.7418L10.5069 1.4375C11.5055 1.86075 12.3806 2.52883 13.0634 3.36934L12.8859 3.33522C12.6834 3.28589 12.4796 3.40853 12.4287 3.61232L11.9136 6.14124C11.8739 6.38283 11.9796 6.71941 12.1491 6.88954L14.0027 8.61897C14.1606 8.75314 14.3961 8.7264 14.5308 8.56273L14.5625 8.52861C14.4403 9.62593 14.0683 10.6426 13.5045 11.5181L13.414 10.9095C13.3926 10.697 13.2128 10.5356 13.0108 10.5527L10.53 10.8722C10.2963 10.9114 10.0234 11.1258 9.92257 11.3448L8.944 13.7192C8.87353 13.9166 8.97344 14.1374 9.16612 14.2172L9.51803 14.3841C9.03454 14.5012 8.5292 14.5625 8.00959 14.5625C7.45207 14.5625 6.9106 14.4915 6.39411 14.3569L6.72461 14.2006C6.91729 14.1203 7.01764 13.899 6.94717 13.7022L5.96816 11.3277C5.86781 11.1087 5.5944 10.8943 5.36113 10.8551L2.87859 10.5356C2.6761 10.5181 2.4968 10.6799 2.47539 10.8925L2.40804 11.3466C1.87192 10.4558 1.52804 9.42814 1.4375 8.32482L1.59361 8.49495C1.7283 8.65632 1.9638 8.68352 2.12169 8.5512L3.97579 6.8213C4.1435 6.65117 4.25054 6.3146 4.21085 6.073L3.69436 3.54593C3.64351 3.34168 3.4379 3.2195 3.23719 3.26883L2.99857 3.31309ZM7.23346 5.28185C7.39802 5.15759 7.66358 5.15453 7.83108 5.28185L9.66938 6.67143C9.83351 6.79569 9.91726 7.05733 9.85371 7.26209L9.15046 9.51054C9.08733 9.7118 8.87438 9.875 8.66816 9.875H6.39512C6.19184 9.875 5.97636 9.71487 5.91239 9.51054L5.20914 7.26209C5.14559 7.06039 5.2264 6.79744 5.3939 6.67143L7.23346 5.28185ZM7.99977 15.5C12.1414 15.5 15.5 12.1418 15.5 8.00023C15.5 3.8582 12.1414 0.5 7.99977 0.5C3.8582 0.5 0.5 3.8582 0.5 8.00023C0.5 12.1418 3.8582 15.5 7.99977 15.5Z" fill="currentColor"/>
</svg>
