<svg width="24" height="24" viewBox="0 0 24 24" fill="none" xmlns="http://www.w3.org/2000/svg">
<g clip-path="url(#clip0_5288_3465)">
<path d="M12 22.5C9.21523 22.5 6.54451 21.3938 4.57538 19.4246C2.60625 17.4555 1.5 14.7848 1.5 12C1.5 9.21523 2.60625 6.54451 4.57538 4.57538C6.54451 2.60625 9.21523 1.5 12 1.5C14.7848 1.5 17.4555 2.60625 19.4246 4.57538C21.3938 6.54451 22.5 9.21523 22.5 12C22.5 14.7848 21.3938 17.4555 19.4246 19.4246C17.4555 21.3938 14.7848 22.5 12 22.5ZM12 24C15.1826 24 18.2348 22.7357 20.4853 20.4853C22.7357 18.2348 24 15.1826 24 12C24 8.8174 22.7357 5.76516 20.4853 3.51472C18.2348 1.26428 15.1826 0 12 0C8.8174 0 5.76516 1.26428 3.51472 3.51472C1.26428 5.76516 0 8.8174 0 12C0 15.1826 1.26428 18.2348 3.51472 20.4853C5.76516 22.7357 8.8174 24 12 24Z" fill="white"/>
<path d="M10.5039 16.5001C10.5039 16.3031 10.5427 16.108 10.6181 15.926C10.6935 15.744 10.804 15.5787 10.9432 15.4394C11.0825 15.3001 11.2479 15.1896 11.4299 15.1142C11.6119 15.0389 11.8069 15.0001 12.0039 15.0001C12.2009 15.0001 12.3959 15.0389 12.5779 15.1142C12.7599 15.1896 12.9253 15.3001 13.0646 15.4394C13.2039 15.5787 13.3143 15.744 13.3897 15.926C13.4651 16.108 13.5039 16.3031 13.5039 16.5001C13.5039 16.8979 13.3459 17.2794 13.0646 17.5607C12.7833 17.842 12.4017 18.0001 12.0039 18.0001C11.6061 18.0001 11.2246 17.842 10.9432 17.5607C10.6619 17.2794 10.5039 16.8979 10.5039 16.5001ZM10.6509 7.49255C10.6309 7.30332 10.651 7.11199 10.7097 6.931C10.7684 6.75 10.8646 6.58338 10.9919 6.44193C11.1192 6.30049 11.2748 6.18739 11.4486 6.10998C11.6225 6.03256 11.8106 5.99255 12.0009 5.99255C12.1912 5.99255 12.3794 6.03256 12.5532 6.10998C12.727 6.18739 12.8826 6.30049 13.0099 6.44193C13.1372 6.58338 13.2334 6.75 13.2921 6.931C13.3508 7.11199 13.3709 7.30332 13.3509 7.49255L12.8259 12.7531C12.8083 12.9597 12.7137 13.1522 12.5609 13.2925C12.4082 13.4328 12.2083 13.5106 12.0009 13.5106C11.7935 13.5106 11.5936 13.4328 11.4409 13.2925C11.2881 13.1522 11.1935 12.9597 11.1759 12.7531L10.6509 7.49255Z" fill="white"/>
</g>
<defs>
<clipPath id="clip0_5288_3465">
<rect width="24" height="24" fill="white"/>
</clipPath>
</defs>
</svg>
