<svg width="24" height="22" viewBox="0 0 24 22" fill="none" xmlns="http://www.w3.org/2000/svg">
<path d="M16.5 2C16.5 1.60218 16.658 1.22064 16.9393 0.93934C17.2206 0.658035 17.6022 0.5 18 0.5H21C21.3978 0.5 21.7794 0.658035 22.0607 0.93934C22.342 1.22064 22.5 1.60218 22.5 2V20H23.25C23.4489 20 23.6397 20.079 23.7803 20.2197C23.921 20.3603 24 20.5511 24 20.75C24 20.9489 23.921 21.1397 23.7803 21.2803C23.6397 21.421 23.4489 21.5 23.25 21.5H0.75C0.551088 21.5 0.360322 21.421 0.21967 21.2803C0.0790176 21.1397 0 20.9489 0 20.75C0 20.5511 0.0790176 20.3603 0.21967 20.2197C0.360322 20.079 0.551088 20 0.75 20H1.5V15.5C1.5 15.1022 1.65804 14.7206 1.93934 14.4393C2.22064 14.158 2.60218 14 3 14H6C6.39782 14 6.77936 14.158 7.06066 14.4393C7.34196 14.7206 7.5 15.1022 7.5 15.5V20H9V9.5C9 9.10218 9.15804 8.72064 9.43934 8.43934C9.72064 8.15804 10.1022 8 10.5 8H13.5C13.8978 8 14.2794 8.15804 14.5607 8.43934C14.842 8.72064 15 9.10218 15 9.5V20H16.5V2Z" fill="#F3B867"/>
</svg>
