<svg width="58" height="24" viewBox="0 0 58 24" fill="none" xmlns="http://www.w3.org/2000/svg">
<path d="M3.42135 6.16216L0 24H7.33146L11.7303 0H4.39888L0.651685 6.16216H3.42135Z" fill="#006600"/>
<path d="M15.8034 6.16216L12.3821 24H19.7135L24.1124 0H16.781L13.0338 6.16216H15.8034Z" fill="#006600"/>
<path d="M32.7472 8.43237H25.4157L22.4832 23.9999H29.8146L32.7472 8.43237Z" fill="#006600"/>
<path d="M34.3763 0H27.0448L25.7415 6.48649H33.0729L34.3763 0Z" fill="#fff"/>
<path d="M41.8708 8.5946H34.7023C33.2601 16.532 39.358 23.8378 47.4254 23.8378H51.9719L55.0674 18H49.6533C44.6832 18 40.9405 13.4768 41.8708 8.5946Z" fill="#006600"/>
<path d="M57.9999 0H43.9207C39.8986 0 36.3516 2.63551 35.1909 6.48649H54.0898L57.9999 0Z" fill="#fff"/>
</svg>
