<svg width="25" height="24" viewBox="0 0 25 24" fill="none" xmlns="http://www.w3.org/2000/svg">
<path d="M12.5001 0.00012207C5.88329 0.00012207 0.500122 5.38329 0.500122 12.0001C0.500122 18.6169 5.88329 24 12.5001 24C19.1169 24 24.5 18.6169 24.5 12.0001C24.5 5.38325 19.1169 0.00012207 12.5001 0.00012207ZM12.5001 22.5C6.7104 22.5 2.00012 17.7897 2.00012 12.0001C2.00012 6.2104 6.7104 1.50012 12.5001 1.50012C18.2897 1.50012 23 6.21036 23 12.0001C23 17.7897 18.2897 22.5 12.5001 22.5ZM19.1563 12.0001C19.1563 12.4143 18.8205 12.7501 18.4063 12.7501H13.2501V17.9063C13.2501 18.3206 12.9143 18.6563 12.5001 18.6563C12.0859 18.6563 11.7501 18.3206 11.7501 17.9063V12.7501H6.59383C6.17964 12.7501 5.84383 12.4143 5.84383 12.0001C5.84383 11.5858 6.17964 11.2501 6.59383 11.2501H11.7501V6.09383C11.7501 5.67959 12.0859 5.34383 12.5001 5.34383C12.9143 5.34383 13.2501 5.67959 13.2501 6.09383V11.2501H18.4063C18.8205 11.2501 19.1563 11.5859 19.1563 12.0001Z" fill="white" fill-opacity="0.6"/>
</svg>
