   <svg xmlns="http://www.w3.org/2000/svg" 
        width="28" 
        height="28" 
        viewBox="0 0 28 28" 
        fill="none">
            <path d="M22.1667 4.66602H5.83337C3.90038 4.66602 2.33337 6.23302 2.33337 8.16602V19.8327C2.33337 21.7657 3.90038 23.3327 5.83337 23.3327H22.1667C24.0997 23.3327 25.6667 21.7657 25.6667 19.8327V8.16602C25.6667 6.23302 24.0997 4.66602 22.1667 4.66602Z" fill="#4776E6"/>
            <path d="M25.6667 9.33398H2.33337V12.834H25.6667V9.33398Z" fill="#F7F7F7"/>
            <path d="M14.4316 16.8103L13.8122 20.3175C13.7784 20.5101 13.6091 20.6519 13.4127 20.6519H12.0725C11.8186 20.6519 11.6291 20.4256 11.6731 20.1756L12.2925 16.6685C12.3263 16.4759 12.4955 16.334 12.6919 16.334H14.0322C14.286 16.3374 14.4756 16.5637 14.4316 16.8103ZM17.6006 16.8103L16.9812 20.3175C16.9474 20.5101 16.7782 20.6519 16.5819 20.6519H15.2415C14.9877 20.6519 14.7982 20.4256 14.8421 20.1756L15.4615 16.6685C15.4954 16.4759 15.6646 16.334 15.861 16.334H17.2013C17.4551 16.3374 17.6447 16.5637 17.6006 16.8103ZM22.9325 16.8103L22.3131 20.3175C22.2793 20.5101 22.1101 20.6519 21.9138 20.6519H19.5773C19.3234 20.6519 19.134 20.4256 19.1779 20.1756L19.7973 16.6685C19.8312 16.4759 20.0004 16.334 20.1967 16.334H22.5332C22.7836 16.3374 22.9765 16.5637 22.9325 16.8103Z" fill="#F7F7F7"/>
        </svg>