<svg xmlns="http://www.w3.org/2000/svg" xmlns:xlink="http://www.w3.org/1999/xlink" width="500" zoomAndPan="magnify" viewBox="0 0 375 374.999991" height="500" preserveAspectRatio="xMidYMid meet" version="1.0"><defs><g/><clipPath id="92b2e2d9c2"><path d="M 37.5 39 L 337.5 39 L 337.5 269.640625 L 37.5 269.640625 Z M 37.5 39 " clip-rule="nonzero"/></clipPath></defs><g clip-path="url(#92b2e2d9c2)"><path fill="currentColor" d="M 316.835938 132.644531 L 316.835938 107.476562 C 316.835938 97 308.265625 88.429688 297.789062 88.429688 L 127.023438 88.429688 L 249.253906 75.089844 L 249.253906 52.914062 C 249.253906 48.542969 247.363281 44.785156 243.859375 42.179688 C 240.351562 39.574219 236.210938 38.847656 232.027344 40.109375 L 80.984375 85.5625 C 75.246094 87.289062 71.464844 92.367188 71.464844 98.367188 L 71.464844 141.480469 L 122.785156 141.480469 C 131.582031 141.480469 138.773438 148.675781 138.773438 157.464844 C 138.773438 166.261719 131.578125 173.453125 122.785156 173.453125 L 53.488281 173.453125 C 44.695312 173.457031 37.5 180.652344 37.5 189.445312 C 37.5 198.234375 44.695312 205.429688 53.488281 205.429688 L 167.957031 205.429688 C 176.75 205.429688 183.941406 212.625 183.941406 221.417969 C 183.941406 230.207031 176.746094 237.402344 167.957031 237.402344 L 121.394531 237.402344 C 112.597656 237.402344 105.40625 244.597656 105.40625 253.390625 C 105.40625 262.1875 112.601562 269.375 121.394531 269.375 L 297.78125 269.375 C 308.257812 269.375 316.832031 260.804688 316.832031 250.328125 L 316.832031 225.15625 L 281.496094 225.15625 C 278.378906 225.15625 275.832031 222.609375 275.832031 219.492188 C 275.832031 216.371094 278.378906 213.824219 281.496094 213.824219 L 326.703125 213.824219 C 332.65625 213.824219 337.511719 208.96875 337.511719 203.019531 L 337.511719 154.785156 C 337.511719 148.835938 332.660156 143.980469 326.703125 143.980469 L 261.910156 143.980469 C 258.792969 143.980469 256.238281 141.433594 256.238281 138.3125 C 256.238281 135.195312 258.789062 132.640625 261.910156 132.640625 L 316.835938 132.640625 Z M 260.183594 168.988281 C 254.707031 168.988281 250.261719 173.429688 250.261719 178.910156 C 250.261719 184.390625 254.707031 188.832031 260.183594 188.832031 C 265.664062 188.832031 270.105469 184.390625 270.105469 178.910156 C 270.105469 173.425781 265.664062 168.988281 260.183594 168.988281 Z M 236.601562 178.90625 C 236.601562 165.933594 247.210938 155.320312 260.183594 155.320312 L 326.175781 155.320312 L 326.175781 202.488281 L 260.183594 202.488281 C 247.21875 202.488281 236.601562 191.878906 236.601562 178.90625 Z M 236.601562 178.90625 " fill-opacity="1" fill-rule="evenodd"/></g><g fill="currentColor" fill-opacity="1"><g transform="translate(38.531252, 321.708288)"><g><path d="M 1.796875 0 L 9.625 -39.203125 L 35.390625 -39.203125 L 33.9375 -31.703125 L 17.140625 -31.703125 L 15.515625 -23.578125 L 30.796875 -23.578125 L 29.28125 -16.125 L 14.0625 -16.125 L 12.3125 -7.5625 L 29.6875 -7.5625 L 28.171875 0 Z M 1.796875 0 "/></g></g></g><g fill="currentColor" fill-opacity="1"><g transform="translate(72.518508, 321.708288)"><g><path d="M 2.96875 -10.921875 L 4.203125 -17.296875 L 22.453125 -17.296875 L 21.171875 -10.921875 Z M 2.96875 -10.921875 "/></g></g></g><g fill="currentColor" fill-opacity="1"><g transform="translate(98.162931, 321.708288)"><g><path d="M 10.25 0 L 5.4375 -39.203125 L 14.5625 -39.203125 L 15.953125 -27.265625 L 17.46875 -14.390625 L 24.578125 -27.265625 L 31.1875 -39.203125 L 39.640625 -39.203125 L 41.4375 -27.265625 L 43.40625 -14.21875 L 56.34375 -39.203125 L 66.03125 -39.203125 L 45.53125 0 L 36.953125 0 L 35.390625 -11.03125 L 33.15625 -25.375 L 25.3125 -11.03125 L 19.203125 0 Z M 10.25 0 "/></g></g></g><g fill="currentColor" fill-opacity="1"><g transform="translate(159.866312, 321.708288)"><g><path d="M -2.40625 0 L 20.9375 -39.203125 L 29.734375 -39.203125 L 37.46875 0 L 28.5625 0 L 27.328125 -6.78125 L 11.703125 -6.78125 L 7.671875 0 Z M 15.34375 -13.78125 L 26.3125 -13.78125 L 23.625 -28.109375 Z M 15.34375 -13.78125 "/></g></g></g><g fill="currentColor" fill-opacity="1"><g transform="translate(200.740599, 321.708288)"><g><path d="M 1.796875 0 L 9.625 -39.203125 L 18.703125 -39.203125 L 12.484375 -8.34375 L 29.515625 -8.34375 L 27.828125 0 Z M 1.796875 0 "/></g></g></g><g fill="currentColor" fill-opacity="1"><g transform="translate(233.048092, 321.708288)"><g><path d="M 1.796875 0 L 9.625 -39.203125 L 18.703125 -39.203125 L 12.484375 -8.34375 L 29.515625 -8.34375 L 27.828125 0 Z M 1.796875 0 "/></g></g></g><g fill="currentColor" fill-opacity="1"><g transform="translate(265.355585, 321.708288)"><g><path d="M 1.796875 0 L 9.625 -39.203125 L 35.390625 -39.203125 L 33.9375 -31.703125 L 17.140625 -31.703125 L 15.515625 -23.578125 L 30.796875 -23.578125 L 29.28125 -16.125 L 14.0625 -16.125 L 12.3125 -7.5625 L 29.6875 -7.5625 L 28.171875 0 Z M 1.796875 0 "/></g></g></g><g fill="currentColor" fill-opacity="1"><g transform="translate(299.342842, 321.708288)"><g><path d="M 11.09375 0 L 17.25 -30.859375 L 4.921875 -30.859375 L 6.609375 -39.203125 L 40.3125 -39.203125 L 38.640625 -30.859375 L 26.3125 -30.859375 L 20.15625 0 Z M 11.09375 0 "/></g></g></g></svg>