<svg width="28" height="28" viewBox="0 0 28 28" fill="none" xmlns="http://www.w3.org/2000/svg">
<path d="M22.1666 4.66663H5.83325C3.90026 4.66663 2.33325 6.23363 2.33325 8.16663V19.8333C2.33325 21.7663 3.90026 23.3333 5.83325 23.3333H22.1666C24.0996 23.3333 25.6666 21.7663 25.6666 19.8333V8.16663C25.6666 6.23363 24.0996 4.66663 22.1666 4.66663Z" fill="#1EAA83"/>
<path d="M22.1666 4.66663H5.83325C3.90026 4.66663 2.33325 6.23363 2.33325 8.16663V19.8333C2.33325 21.7663 3.90026 23.3333 5.83325 23.3333H22.1666C24.0996 23.3333 25.6666 21.7663 25.6666 19.8333V8.16663C25.6666 6.23363 24.0996 4.66663 22.1666 4.66663Z" fill="white"/>
<path d="M21.005 14.2143C21.005 13.3231 18.5859 12.6227 15.403 12.4317V11.0313H19.4135V8.16663H8.46416V11.0313H12.4747V12.4317C9.35538 12.6227 7 13.3231 7 14.2143C7 15.0418 9.35538 15.8057 12.4747 15.9967V20.8985H15.403V15.933C18.5859 15.8057 21.005 15.0418 21.005 14.2143ZM14.0025 15.0418C10.5649 15.0418 7.82756 14.5325 7.82756 13.8959C7.82756 13.3231 9.80099 12.8774 12.5383 12.7501V14.4053C13.0477 14.4053 13.5569 14.4688 14.0662 14.4688C14.5754 14.4688 15.0211 14.4688 15.4666 14.4053V12.7501C18.204 12.8774 20.2411 13.3231 20.2411 13.8959C20.1774 14.5325 17.44 15.0418 14.0025 15.0418Z" fill="white"/>
<path d="M21.005 14.2143C21.005 13.3231 18.5859 12.6227 15.403 12.4317V11.0313H19.4135V8.16663H8.46416V11.0313H12.4747V12.4317C9.35538 12.6227 7 13.3231 7 14.2143C7 15.0418 9.35538 15.8057 12.4747 15.9967V20.8985H15.403V15.933C18.5859 15.8057 21.005 15.0418 21.005 14.2143ZM14.0025 15.0418C10.5649 15.0418 7.82756 14.5325 7.82756 13.8959C7.82756 13.3231 9.80099 12.8774 12.5383 12.7501V14.4053C13.0477 14.4053 13.5569 14.4688 14.0662 14.4688C14.5754 14.4688 15.0211 14.4688 15.4666 14.4053V12.7501C18.204 12.8774 20.2411 13.3231 20.2411 13.8959C20.1774 14.5325 17.44 15.0418 14.0025 15.0418Z" fill="#1EAA83"/>
</svg>
