<svg width="20" height="20" viewBox="0 0 20 20" fill="none" xmlns="http://www.w3.org/2000/svg">
<path d="M7.25322 10.3906C7.25322 8.9911 9.99025 6.7571 9.99025 6.7571C9.99025 6.7571 12.7273 8.9911 12.7273 10.3906C12.7273 11.4224 12.2319 11.8362 11.4761 11.8362C10.7654 11.8362 10.3854 11.4205 10.1882 11.0528C10.617 11.9965 11.5934 13.2037 11.5934 13.2037H8.38713C8.38713 13.2037 9.36347 11.9965 9.79229 11.0528C9.59506 11.4205 9.21516 11.8362 8.50443 11.8362C7.74862 11.8362 7.25322 11.4224 7.25322 10.3906ZM20 9.99994C20.0152 18.8598 9.17051 23.3482 2.91224 17.0723C-0.97044 13.3494 -0.971105 6.6504 2.9124 2.92746C9.17118 -3.34815 20.0158 1.14046 20 9.99994ZM4.74394 5.86278L3.49366 4.61346C2.43381 5.88763 1.74181 7.47728 1.58106 9.21853H3.35001C3.49734 7.96074 3.99536 6.80855 4.74394 5.86278ZM15.3808 3.5084C14.1057 2.44935 12.5148 1.75789 10.7723 1.59727V3.36485C12.031 3.51207 13.1841 4.00967 14.1306 4.75771L15.3808 3.5084ZM9.20824 1.59723C7.46569 1.75785 5.87477 2.44931 4.59966 3.50836L5.8499 4.75767C6.79641 4.00967 7.94948 3.51203 9.20824 3.36481V1.59723ZM4.86809 9.99994C4.86809 12.8221 7.16591 15.1182 9.99025 15.1182C16.7762 14.8608 16.7743 5.13802 9.99017 4.88172C7.16587 4.88172 4.86809 7.17773 4.86809 9.99994ZM4.59966 16.4915C5.87477 17.5505 7.46569 18.242 9.20824 18.4026V16.635C7.94948 16.4878 6.79641 15.9902 5.8499 15.2422L4.59966 16.4915ZM10.7723 18.4026C12.5148 18.242 14.1057 17.5505 15.3808 16.4915L14.1306 15.2422C13.1841 15.9902 12.031 16.4878 10.7723 16.635V18.4026ZM16.4868 15.3864C17.5467 14.1123 18.2387 12.5226 18.3994 10.7813H16.6305C16.4832 12.0391 15.9852 13.1913 15.2366 14.1371L16.4868 15.3864ZM16.4868 4.61346L15.2365 5.86278C15.9851 6.80855 16.4831 7.96074 16.6304 9.21853H18.3994C18.2387 7.47728 17.5467 5.88763 16.4868 4.61346ZM3.4937 15.3864L4.74394 14.1371C3.99536 13.1913 3.49734 12.0391 3.35005 10.7813H1.58106C1.74184 12.5226 2.43381 14.1123 3.4937 15.3864Z" fill="white"/>
</svg>
