<svg width="18" height="22" viewBox="0 0 18 22" fill="none" xmlns="http://www.w3.org/2000/svg">
<path d="M1.99958 11.4998C1.99958 6.41186 4.90222 2.06348 8.9996 0.317871C13.0969 2.06348 15.9996 6.41186 15.9996 11.4998C15.9996 12.3227 15.9236 13.1263 15.779 13.9026L17.7194 15.7352C17.8845 15.8911 17.9238 16.1388 17.815 16.3381L15.3196 20.9132C15.1873 21.1556 14.8836 21.2449 14.6412 21.1127C14.5993 21.0898 14.5608 21.0611 14.5271 21.0273L12.2925 18.7927C12.1049 18.6052 11.8506 18.4998 11.5854 18.4998H6.41379C6.14857 18.4998 5.89422 18.6052 5.70668 18.7927L3.47209 21.0273C3.27683 21.2226 2.96025 21.2226 2.76498 21.0273C2.73122 20.9935 2.70246 20.9551 2.67959 20.9132L0.184118 16.3381C0.0753682 16.1388 0.114638 15.8911 0.279748 15.7352L2.22014 13.9026C2.07551 13.1263 1.99958 12.3227 1.99958 11.4998ZM3.47542 18.1955L4.29247 17.3785C4.85508 16.8159 5.61814 16.4998 6.41379 16.4998H11.5854C12.381 16.4998 13.1441 16.8159 13.7067 17.3785L14.5237 18.1955L15.5056 16.3954L14.4058 15.3566C13.9117 14.89 13.6884 14.2044 13.8128 13.5363C13.9366 12.8721 13.9996 12.191 13.9996 11.4998C13.9996 7.63025 12.0045 4.19953 8.9996 2.54021C5.99462 4.19953 3.99958 7.63025 3.99958 11.4998C3.99958 12.191 4.06255 12.8721 4.18631 13.5363C4.31078 14.2044 4.08746 14.89 3.59338 15.3566L2.49353 16.3954L3.47542 18.1955ZM8.9996 11.4998C7.895 11.4998 6.99958 10.6044 6.99958 9.4998C6.99958 8.39525 7.895 7.49982 8.9996 7.49982C10.1041 7.49982 10.9996 8.39525 10.9996 9.4998C10.9996 10.6044 10.1041 11.4998 8.9996 11.4998Z" fill="white"/>
</svg>
