<svg width="14" height="14" viewBox="0 0 14 14" fill="none" xmlns="http://www.w3.org/2000/svg">
<path d="M6.99967 0.333008C3.32367 0.333008 0.333008 3.32367 0.333008 6.99967C0.333008 10.6757 3.32367 13.6663 6.99967 13.6663C10.6757 13.6663 13.6663 10.6757 13.6663 6.99967C13.6663 3.32367 10.6757 0.333008 6.99967 0.333008ZM4.18149 12.0137C4.16708 12.0069 2.64484 11.3455 3.29754 8.96026C3.46369 8.35294 3.91927 7.79559 4.40161 7.20551C5.17516 6.25902 6.05198 5.1863 6.07438 3.55501C6.07501 3.50926 6.07469 3.46419 6.07348 3.41979C6.22854 3.39873 6.38562 3.3827 6.54464 3.37229V12.7383C5.71721 12.6733 4.89503 12.3522 4.18149 12.0137ZM1.34172 8.06167C1.15424 6.04223 2.94504 4.2355 5.16228 3.60879C5.12075 4.88654 4.39739 5.77251 3.69691 6.62953C3.17575 7.26715 2.6368 7.92645 2.41965 8.72003C2.26464 9.2865 2.20996 9.77943 2.22077 10.2056C1.79249 9.56924 1.41521 8.85314 1.34172 8.06167ZM5.41575 1.90064C5.26912 1.77907 5.10926 1.68879 4.94616 1.62208C5.44915 1.42935 5.98571 1.30504 6.54459 1.26113V2.46068C6.32232 2.47361 6.10311 2.49593 5.8874 2.52717C5.77786 2.2803 5.62082 2.07065 5.41575 1.90064ZM8.11195 2.52713C7.89624 2.49588 7.67703 2.47357 7.45476 2.46064V1.26109C8.01364 1.30499 8.5502 1.4293 9.05319 1.62203C8.89009 1.68874 8.73022 1.77902 8.58365 1.90059C8.37853 2.07065 8.22154 2.2803 8.11195 2.52713ZM9.87756 11.9797C9.12892 12.3576 8.33458 12.6691 7.45476 12.7383V3.37229C7.61377 3.3827 7.77085 3.39873 7.92592 3.41979C7.9247 3.46419 7.92439 3.50926 7.92502 3.55501C7.94742 5.1863 8.82423 6.25902 9.59779 7.20551C10.0801 7.79559 10.5357 8.35294 10.7019 8.96026C11.3453 11.3118 9.93611 11.9501 9.87756 11.9797ZM12.6576 8.02652C12.5841 8.81799 12.2069 9.56924 11.7786 10.2056C11.7894 9.77943 11.7347 9.2865 11.5797 8.72003C11.3625 7.92645 10.8236 7.26715 10.3024 6.62953C9.60196 5.77251 8.8786 4.88654 8.83707 3.60879C11.0543 4.2355 12.8451 6.00713 12.6576 8.02652ZM12.2757 4.69862C11.4751 3.78526 10.3507 3.08641 9.04713 2.7238C9.08134 2.679 9.11963 2.63882 9.16206 2.60336C9.46625 2.34899 10.0974 2.3392 10.4126 2.36708C11.221 2.96412 11.868 3.76744 12.2757 4.69862ZM3.58746 2.3665C3.89723 2.33943 4.5296 2.34814 4.83483 2.60125C4.87819 2.63721 4.91725 2.67819 4.95213 2.72385C3.64856 3.08641 2.52421 3.78531 1.72363 4.69862C2.13144 3.76713 2.77875 2.96367 3.58746 2.3665Z" fill="white"/>
</svg>
